<?xml version="1.0" encoding="utf-8"?>
<!-- Generator: Adobe Illustrator 27.9.0, SVG Export Plug-In . SVG Version: 6.00 Build 0)  -->
<svg version="1.1" id="Layer_1" xmlns="http://www.w3.org/2000/svg" xmlns:xlink="http://www.w3.org/1999/xlink" x="0px" y="0px"
	 viewBox="0 0 1388.38 418.85" style="enable-background:new 0 0 1388.38 418.85;" xml:space="preserve">
<style type="text/css">
	.st0{fill:#F0FFEE;}
	.st1{display:none;}
	.st2{display:inline;}
	.st3{display:none;fill:#F0FFEE;}
</style>
<g>
	<g>
		<path class="st0" d="M0,140.46V1.58h67.69v97.95h69.63v40.93H0z"/>
		<path class="st0" d="M165.64,140.46c-6.21,0-11.35-2.33-15.42-6.98c-4.07-4.65-6.11-10.41-6.11-17.26V1.58h67.69v88.84
			c0,5.56,1.75,9.6,5.24,12.12s8.21,3.78,14.16,3.78c5.95,0,10.6-1.19,13.97-3.59c3.36-2.39,5.04-6.43,5.04-12.12V1.58h62.07v114.63
			c0,6.86-2.04,12.61-6.11,17.26c-4.07,4.66-9.21,6.98-15.42,6.98H165.64z"/>
		<path class="st0" d="M327.02,140.46V1.58h66.34l28.51,28.32l20.37,20.17h1.55V27.19V1.58h48.88v138.88h-60.52l-29.48-30.06
			l-25.22-25.22h-1.55v28.32v26.96H327.02z"/>
		<path class="st0" d="M497.13,140.46L543.68,1.58h95.04l46.55,138.88h-73.51l-6.79-21.34h-45.58l-7.18,21.34H497.13z M568.31,87.51
			h28.12l-13-40.93h-1.55L568.31,87.51z"/>
	</g>
	<g>
		<g>
			<path class="st0" d="M855.17,418.85V279.98h148.58c5.69,0,10.34,2.07,13.96,6.21c3.62,4.14,5.43,9.31,5.43,15.52v1.94v20.95
				c0,6.59-1.71,11.7-5.14,15.32c-3.43,3.62-8.18,5.62-14.26,6.01v1.94c6.46,0.39,11.57,2.46,15.32,6.21
				c3.75,3.75,5.63,9.05,5.63,15.91v26.96c0,6.34-1.81,11.57-5.43,15.71c-3.62,4.14-8.28,6.21-13.96,6.21H855.17z M921.9,332.73
				h26.77c2.84,0,4.88-1.07,6.11-3.2c1.23-2.13,1.84-4.95,1.84-8.44c0-3.75-0.62-6.62-1.84-8.63c-1.23-2-3.27-3.01-6.11-3.01H921.9
				V332.73z M921.9,389.37h27.35c3.23,0,5.4-1.16,6.5-3.49c1.1-2.33,1.65-5.43,1.65-9.31c0-4.01-0.55-7.11-1.65-9.31
				c-1.1-2.2-3.27-3.3-6.5-3.3H921.9V389.37z"/>
		</g>
		<g>
			<path class="st0" d="M1024.7,418.85l46.55-138.88h95.04l46.55,138.88h-73.51l-6.79-21.34h-45.58l-7.18,21.34H1024.7z
				 M1095.88,365.9h28.12l-13-40.93h-1.55L1095.88,365.9z"/>
		</g>
		<g>
			<path class="st0" d="M1368.77,378.33c4.01-0.94,7.48-3.08,10.39-6.42c4.08-4.65,6.11-10.4,6.11-17.26v-50.43
				c0-6.98-2.03-12.77-6.11-17.36c-4.07-4.59-9.21-6.88-15.42-6.88H1217.3v138.87h66.72V378.9h17.08l17.26,39.95h70.02
				L1368.77,378.33z M1284.02,312.17h24.06c3.61,0,6.11,1.59,7.46,4.75c1.36,3.18,2.04,7.28,2.04,12.32c0,5.43-0.68,9.7-2.04,12.8
				c-1.35,3.11-3.85,4.66-7.46,4.66h-24.06V312.17z"/>
		</g>
	</g>
	<g>
		<path class="st0" d="M775.72,1.58L775.72,1.58c0,112.98,31.46,204.57,138.53,204.57v0c-107.07,0-138.53,91.59-138.53,204.57h0
			c0-112.98-32.18-204.57-139.26-204.57v0C743.54,206.16,775.72,114.57,775.72,1.58z"/>
	</g>
</g>
<g class="st1">
	<g class="st2">
		<g>
			<path class="st0" d="M1480.78-268.76L1480.78-268.76c55.51-133.58,61.26-258.17-72.32-313.68l0,0
				c133.58,55.51,217.82-36.47,273.33-170.05l0,0c-55.51,133.58-60.36,258.55,73.22,314.05l0,0
				C1621.43-493.93,1536.29-402.33,1480.78-268.76z"/>
		</g>
	</g>
	<g class="st2">
		<g>
			<path class="st0" d="M1102.08-648.85L1102.08-648.85c133.7-55.2,225.87-139.24,170.67-272.94l0,0
				c55.2,133.7,179.81,128.23,313.51,73.03l0,0c-133.7,55.2-225.5,140.14-170.29,273.84l0,0
				C1360.76-708.62,1235.78-704.06,1102.08-648.85z"/>
		</g>
	</g>
	<g class="st2">
		<g>
			<path class="st0" d="M1103.07-1185.4L1103.07-1185.4c133.58,55.51,258.17,61.26,313.68-72.32l0,0
				c-55.51,133.58,36.47,217.82,170.05,273.33l0,0c-133.58-55.51-258.55-60.36-314.05,73.22l0,0
				C1328.25-1044.75,1236.65-1129.9,1103.07-1185.4z"/>
		</g>
	</g>
	<g class="st2">
		<g>
			<path class="st0" d="M1483.17-1564.1L1483.17-1564.1c55.2,133.7,139.24,225.87,272.94,170.67l0,0
				c-133.7,55.2-128.23,179.81-73.03,313.51l0,0c-55.2-133.7-140.14-225.5-273.84-170.29l0,0
				C1542.94-1305.42,1538.37-1430.4,1483.17-1564.1z"/>
		</g>
	</g>
	<g class="st2">
		<g>
			<path class="st0" d="M2019.72-1563.11L2019.72-1563.11c-55.51,133.58-61.26,258.17,72.32,313.68l0,0
				c-133.58-55.51-217.82,36.47-273.33,170.05l0,0c55.51-133.58,60.36-258.55-73.22-314.05l0,0
				C1879.06-1337.93,1964.21-1429.54,2019.72-1563.11z"/>
		</g>
	</g>
	<g class="st2">
		<g>
			<path class="st0" d="M2398.42-1183.01L2398.42-1183.01c-133.7,55.2-225.87,139.24-170.67,272.94l0,0
				c-55.2-133.7-179.81-128.23-313.51-73.03l0,0c133.7-55.2,225.5-140.14,170.29-273.84l0,0
				C2139.73-1123.25,2264.71-1127.81,2398.42-1183.01z"/>
		</g>
	</g>
</g>
<rect x="2479.33" y="207.58" class="st3" width="1023.56" height="766.17"/>
</svg>
